<?xml version="1.0" standalone="no"?>
<!DOCTYPE svg PUBLIC "-//W3C//DTD SVG 20010904//EN"
 "http://www.w3.org/TR/2001/REC-SVG-20010904/DTD/svg10.dtd">
<svg version="1.0" xmlns="http://www.w3.org/2000/svg"
 width="200.000000pt" height="200.000000pt" viewBox="0 0 200.000000 200.000000"
 preserveAspectRatio="xMidYMid meet">
<metadata>
Created by potrace 1.15, written by Peter Selinger 2001-2017
</metadata>
<g transform="translate(0.000000,200.000000) scale(0.100000,-0.100000)"
fill="#000000" stroke="none">
<path d="M376 1324 c-76 -15 -147 -36 -218 -66 -41 -17 -48 -25 -54 -55 -4
-18 -4 -37 0 -40 3 -3 32 6 63 20 51 23 154 51 298 83 36 8 40 13 43 42 3 30
2 32 -30 31 -18 0 -64 -7 -102 -15z"/>
<path d="M1230 1333 c-58 -10 -214 -54 -260 -74 -42 -18 -50 -26 -56 -56 -4
-18 -4 -37 0 -40 3 -3 32 6 63 20 32 14 108 38 168 52 61 14 123 29 139 33 21
5 32 16 37 34 4 15 4 29 1 32 -6 6 -52 6 -92 -1z"/>
<path d="M443 1213 c-13 -29 -18 -79 -21 -210 -4 -158 -3 -173 13 -173 9 0 25
10 34 21 l17 22 26 -26 c23 -23 32 -25 117 -25 92 0 93 0 132 35 37 34 51 63
29 63 -5 0 -19 -9 -30 -20 -22 -22 -37 -25 -59 -11 -11 7 -9 16 13 44 35 45
39 91 10 95 -32 5 -82 -43 -101 -99 -10 -27 -21 -49 -24 -49 -10 0 -59 59 -59
71 0 21 -31 6 -60 -28 l-32 -38 5 45 c2 25 17 74 32 110 22 50 29 82 29 135 1
69 1 70 -27 73 -23 3 -30 -2 -44 -35z"/>
<path d="M275 1168 c-39 -132 -44 -283 -11 -333 13 -19 25 -25 54 -25 71 0
115 61 53 73 -23 5 -32 15 -46 52 -15 38 -17 66 -12 165 4 98 3 120 -9 120 -7
0 -20 -22 -29 -52z"/>
<path d="M1086 1170 c-38 -128 -43 -287 -10 -337 27 -43 134 -21 134 27 0 11
-8 20 -21 22 -12 2 -31 16 -43 31 -19 26 -21 42 -20 168 0 106 -3 139 -13 139
-7 0 -19 -23 -27 -50z"/>
<path d="M1596 1191 c-26 -28 -57 -136 -63 -219 -5 -67 -8 -73 -31 -79 -30 -7
-62 25 -62 63 0 15 -6 24 -15 24 -8 0 -15 -5 -15 -11 0 -5 -13 -3 -29 7 -27
16 -31 16 -54 1 -22 -14 -26 -14 -31 -2 -8 22 -42 18 -66 -7 -26 -28 -26 -48
1 -48 19 0 20 -4 14 -50 -8 -56 3 -68 51 -56 28 7 28 10 8 86 -6 21 -4 23 7
13 19 -18 40 -16 64 7 l21 20 -4 -35 c-9 -75 61 -112 121 -65 l26 21 11 -21
c8 -15 21 -20 51 -20 33 0 46 7 77 37 37 37 37 37 40 13 6 -38 21 -50 64 -50
47 0 91 28 113 71 18 35 6 38 -33 9 -17 -13 -35 -18 -45 -14 -22 8 -22 14 8
54 14 19 25 47 25 62 0 23 -4 28 -24 28 -27 0 -81 -48 -91 -80 -9 -28 -23 -16
-18 15 4 16 0 27 -10 31 -40 15 -92 -59 -69 -97 20 -32 -9 -21 -36 13 -12 15
-10 27 12 83 31 76 50 167 41 195 -8 25 -37 26 -59 1z"/>
</g>
</svg>
